<svg
   width="150"
   height="50"
   viewBox="0 0 150 49.999999"
   version="1.1"
   xmlns="http://www.w3.org/2000/svg">
  <path
     d="m 4.8524492,44.6919 c 0,0.1574 0.063,0.2991 0.5352,0.2991 0.4722,0 1.5269,-0.0315 2.2667,-0.8815 0.7398,-0.85 5.1472998,-6.3121 6.1231998,-6.9733 0.9759,-0.6611 1.6213,-0.787 4.8797,-0.9444 3.2584,-0.1574 2.9121,-0.0945 3.6834,-0.8185 0.7713,-0.7241 3.825,-4.2973 4.313,-4.7853 0.488,-0.488 0.6769,-0.6768 1.2435,-0.6768 0.5667,0 2.6445,0.6768 4.9903,0.6768 2.345,0 4.785,-1.5111 10.672,-4.7537 5.887,-3.2427 6.658,-4.3445 7.146,-4.3445 0.096,0 0.188,0.0381 0.256,0.106 0.068,0.0679 0.106,0.16 0.106,0.256 0,0.2833 -0.661,1.275 -2.156,3.3371 -1.747,2.4083 -2.881,3.6047 -2.881,3.7621 0,0.1574 0.095,0.2203 0.252,0.2203 0.158,0 1.039,-0.1259 1.37,-0.5037 0.33,-0.3778 2.644,-3.6676 3.872,-5.0843 1.228,-1.4167 3.274,-3.8408 3.274,-4.0612 0,-0.2203 -1.039,-1.4796 -1.307,-1.4796 -0.267,0 -1.731,0.7083 -3.289,1.4482 -1.559,0.7398 -2.991,1.6213 -3.668,1.6213 -0.677,0 -1.007,-0.2361 -0.96,-1.3065 0.409,-7.7918 -4.471,-8.8307 -4.471,-10.1372 0,-0.2833 1.858,-1.2907 2.424,-1.2907 0.567,0 1.889,-0.1102 1.889,-1.3223 0,-0.85 -0.96,-1.1333 -1.133,-1.1333 h -4.644 c -0.472,0 -2.172,-0.7241 -5.918,-0.7241 -3.7465,0 -4.7539,0.362 -7.1465,0.362 -2.3926,0 -3.5102,-0.5509 -3.9038,-0.5509 -0.0497,0.0057 -0.0963,0.0271 -0.1331,0.0611 -0.0368,0.0339 -0.0618,0.0787 -0.0715,0.1278 0,0.3148 1.8102,1.6843 4.9427,1.6843 3.1324,0 4.4862,-0.2047 5.8402,-0.2047 1.353,0 3.085,0.5667 3.085,0.8186 0,0.2518 -0.142,0.6453 -0.142,1.212 0,4.5019 2.534,5.5408 2.534,7.3038 0,1.763 -0.55,2.1093 -1.715,3.038 l -2.692,2.2352 c -1.826,1.5112 -3.7148,3.3371 -9.3816,3.3371 -2.3454,0 -6.1389,0.0157 -6.5325,-0.6296 -0.1574,-0.2519 -0.5509,-0.6769 -0.6139,-1.1176 -0.0944,-0.7084 -0.1574,-1.2593 -0.4092,-1.2593 -0.2519,0 -0.5667,2.2509 -0.5667,2.7704 0,1.212 0.6139,1.763 0.6139,2.3454 0,0.5824 -0.2518,4.2028 -0.1889,4.3287 0.063,0.126 0.9602,0.7871 0.9602,0.976 0,0.1889 -1.9833,1.8732 -4.3602,2.0778 -0.7241,0.0629 -1.1334,-0.0787 -1.4797,0.7556 -0.1259,0.299 -0.7713,2.062 -2.8018998,4.9898 -2.0305,2.9278 -4.7065,4.1084 -4.7065,4.8325 z"
     fill="#50afc6" />
  <path
     d="m 79.684479,19.065641 c -0.21,-0.0061 -0.42091,0.0044 -0.62891,0.03125 l -0.34765,0.04687 v 15.095703 h 1.875 c 0.299,0 0.48728,-0.07885 0.61328,-0.251953 0.11,-0.1678 0.1662,-0.365707 0.1582,-0.566407 l 0.21875,0.236329 c 0.161,0.137399 0.33453,0.258028 0.51953,0.361328 0.266,0.147399 0.54499,0.269781 0.83399,0.363281 0.39,0.1059 0.79326,0.15765 1.19726,0.15625 0.519,-0.0068 1.03435,-0.09175 1.52735,-0.251953 0.522,-0.1847 0.99114,-0.491785 1.36914,-0.896485 0.451,-0.493299 0.78823,-1.077744 0.99023,-1.714843 0.268,-0.7398 0.39453,-1.653886 0.39453,-2.771485 0.02,-0.822799 -0.10232,-1.642629 -0.36132,-2.423828 -0.198,-0.582799 -0.51569,-1.118719 -0.92969,-1.574219 -0.38,-0.383199 -0.84252,-0.673609 -1.35352,-0.849609 -0.515,-0.1587 -1.05184,-0.238528 -1.58984,-0.236328 -0.662,0 -1.19647,0.09423 -1.60547,0.298828 -0.347,0.1567 -0.66536,0.368807 -0.94336,0.628906 v -3.966797 c 0.008,-0.302999 -0.05083,-0.603459 -0.17383,-0.880859 -0.103,-0.2061 -0.2554,-0.384331 -0.4414,-0.519531 -0.184,-0.128 -0.39328,-0.213953 -0.61328,-0.251953 -0.234,-0.0444 -0.47099,-0.0651 -0.70899,-0.0625 z m 50.482421,0.142578 -0.14257,0.03125 v 13.048828 c 0,0.2991 0.0163,0.566385 0.0312,0.833984 0.013,0.2398 0.0718,0.47576 0.17383,0.69336 0.093,0.203699 0.24646,0.372328 0.43946,0.486328 0.245,0.1378 0.52273,0.203853 0.80273,0.189453 h 0.44141 l 0.4414,-0.07813 v -0.457031 c -0.378,-0.0315 -0.66098,-0.141179 -0.83398,-0.330078 -0.173,-0.1889 -0.25391,-0.583442 -0.25391,-1.181641 V 20.309781 c 0.009,-0.2017 -0.034,-0.401831 -0.125,-0.582031 -0.069,-0.1257 -0.15858,-0.239231 -0.26758,-0.332031 -0.1,-0.0713 -0.21107,-0.12345 -0.33007,-0.15625 l -0.29883,-0.03125 z m 3.54102,0 -0.14063,0.03125 v 13.048828 c 0,0.2991 0.0133,0.566385 0.0293,0.833984 0.02,0.2387 0.0798,0.47326 0.17383,0.69336 0.094,0.203699 0.24841,0.372328 0.44141,0.486328 0.24999,0.1374 0.53235,0.203353 0.81835,0.189453 h 0.42579 l 0.45507,-0.07813 v -0.457031 c -0.394,-0.0315 -0.66098,-0.141179 -0.83398,-0.330078 -0.173,-0.1889 -0.26758,-0.583442 -0.26758,-1.181641 V 20.309781 c 0.013,-0.2003 -0.0244,-0.400231 -0.10937,-0.582031 -0.069,-0.1298 -0.16621,-0.244131 -0.28321,-0.332031 -0.101,-0.0713 -0.21303,-0.12345 -0.33203,-0.15625 l -0.29883,-0.03125 z m -66.408201,0.597656 c -0.16964,0.0083 -0.33755,0.04081 -0.49805,0.09961 -0.214,0.0785 -0.41017,0.201222 -0.57617,0.357422 -0.311,0.3145 -0.53353,0.704913 -0.64453,1.132813 l -2.40821,8.736328 -1.82617,-6.421875 -0.72461,-2.566406 c -0.567,0.188799 -1.13234,0.393056 -1.65234,0.597656 l -0.59766,1.888672 -0.44141,1.417968 -1.65234,5.304688 -1.8418,-6.044922 c -0.85899,0.665799 -1.58825,1.481704 -2.15625,2.408203 l 2.53516,7.619141 h 2.40625 l 2.33008,-7.478516 2.42383,7.494141 h 2.4082 l 4.61328,-14.308594 -0.67773,-0.158203 c -0.28,-0.0541 -0.56361,-0.07992 -0.84961,-0.07813 -0.05675,-0.003 -0.11338,-0.0028 -0.16992,0 z m 28.5664,0.03125 c -1.086,0 -2.04503,0.173057 -2.83203,0.535156 -0.768,0.3455 -1.44375,0.869445 -1.96875,1.527344 -0.536,0.685099 -0.92644,1.471101 -1.14844,2.3125 -0.259,0.964799 -0.3869,1.961938 -0.3789,2.960937 -0.006,1.023799 0.11628,2.043511 0.36328,3.03711 0.211,0.858799 0.59019,1.666954 1.11719,2.376953 0.5,0.675399 1.15992,1.216319 1.91992,1.574219 0.88,0.397499 1.83773,0.590906 2.80273,0.566406 0.794,0.0216 1.58571,-0.08435 2.34571,-0.314453 0.56199,-0.1925 1.09321,-0.46816 1.57421,-0.818359 0.236,-0.1567 0.452541,-0.341582 0.644531,-0.550782 0.132,-0.1592 0.25233,-0.327706 0.36133,-0.503906 v -5.447266 h -4.517571 v 1.070313 h 3.30664 v 4.078125 c -0.109,0.1461 -0.23129,0.281803 -0.36329,0.408203 -0.195,0.1861 -0.41715,0.340731 -0.66015,0.457031 -0.336,0.1738 -0.68969,0.310003 -1.05469,0.408203 -0.495,0.117 -1.00372,0.170703 -1.51172,0.158203 -0.944,0 -1.74658,-0.172981 -2.39258,-0.550781 -0.628,-0.350999 -1.15997,-0.855344 -1.54297,-1.464843 -0.39299,-0.639 -0.66935,-1.340773 -0.81835,-2.076172 -0.172,-0.791 -0.25696,-1.598504 -0.25196,-2.408204 -0.001,-0.777299 0.07833,-1.553253 0.23633,-2.314453 0.129,-0.708699 0.39149,-1.3877 0.77148,-2 0.385,-0.586199 0.91035,-1.067091 1.52735,-1.40039 0.645,-0.3621 1.4482,-0.535157 2.4082,-0.535157 0.464,-0.0079 0.92514,0.05635 1.36914,0.189454 0.364,0.1083 0.71307,0.260278 1.03907,0.455078 0.25999,0.1463 0.5026,0.320631 0.7246,0.519531 l 0.40821,0.425781 h 0.23633 c 0.283,-0.330499 0.425781,-0.582834 0.425781,-0.740234 0,-0.0974 -0.03371,-0.191878 -0.09571,-0.267578 -0.044,-0.0786 -0.09625,-0.152703 -0.15625,-0.220703 l -0.42578,-0.361329 c -0.239,-0.188899 -0.49848,-0.352781 -0.77148,-0.488281 -0.37,-0.1759 -0.75344,-0.316928 -1.14844,-0.423828 -0.506,-0.1191 -1.02397,-0.177928 -1.54297,-0.173828 z m -23.04492,3.982422 c -0.61,-0.0031 -1.21597,0.09773 -1.79297,0.298828 -0.588,0.187 -1.12622,0.505388 -1.57422,0.929687 -0.481,0.4574 -0.86214,1.009295 -1.11914,1.621094 -0.294,0.7404 -0.4322,1.531726 -0.4082,2.328125 0,1.086099 0.14108,2.00051 0.45508,2.72461 0.275,0.665999 0.70014,1.257869 1.24414,1.730468 0.502,0.4264 1.09542,0.734438 1.73242,0.898438 0.649,0.163 1.31342,0.247653 1.98242,0.251953 0.654,0.0142 1.3085,-0.07075 1.9375,-0.251953 0.45,-0.1211 0.87481,-0.319585 1.25781,-0.583985 0.362,-0.251899 0.53516,-0.550609 0.53516,-0.849609 -0.016,-0.2963 -0.10958,-0.583085 -0.26758,-0.833984 -0.155,-0.2877 -0.3322,-0.56146 -0.5332,-0.81836 l -0.42578,0.376953 c -0.176,0.1402 -0.36541,0.262882 -0.56641,0.363282 -0.228,0.1305 -0.47161,0.230828 -0.72461,0.298828 -0.308,0.081 -0.62631,0.117275 -0.94531,0.109375 -0.928,0 -1.6043,-0.252085 -2.0293,-0.771485 -0.446,-0.561599 -0.69961,-1.250297 -0.72461,-1.966796 h 6.29688 c 0,-0.0629 0.03125,-0.157304 0.03125,-0.283204 0,-0.125899 0.01562,-0.251053 0.01562,-0.376953 0,-0.125899 0.01563,-0.253081 0.01563,-0.363281 V 28.35275 c 0.002,-0.580199 -0.07733,-1.156744 -0.23633,-1.714844 -0.152,-0.531899 -0.41548,-1.026619 -0.77148,-1.449218 -0.372,-0.4316 -0.83352,-0.776113 -1.35352,-1.007813 -0.646,-0.2565 -1.33625,-0.378828 -2.03125,-0.361328 z m 33.451171,0.423828 c -0.0739,-9.22e-4 -0.14865,-1.34e-4 -0.22265,0.002 -0.539,0.0065 -1.07552,0.06308 -1.60352,0.171875 -0.482,0.0995 -0.94972,0.264082 -1.38672,0.488281 -0.142,0.0724 -0.27258,0.162279 -0.39258,0.267578 -0.049,0.0367 -0.0892,0.08397 -0.11718,0.138672 -0.027,0.0546 -0.041,0.114682 -0.041,0.175782 0.031,0.259599 0.13383,0.505784 0.29883,0.708984 h 0.18945 c 0.356,-0.2732 0.75469,-0.485206 1.17969,-0.628906 0.571,-0.2009 1.1743,-0.298656 1.7793,-0.285156 0.423,-0.0138 0.84414,0.05075 1.24414,0.189453 0.291,0.0997 0.55186,0.273506 0.75586,0.503906 0.175,0.2241 0.30295,0.48126 0.37695,0.755859 0.065,0.3159 0.0968,0.638438 0.0937,0.960938 v 0.501953 l -0.4707,-0.03125 h -0.48829 c -0.595,0.0066 -1.18929,0.04975 -1.77929,0.126953 -0.636,0.0871 -1.2578,0.267357 -1.8418,0.535156 -0.552,0.245 -1.03964,0.610713 -1.43164,1.070313 -0.391,0.514299 -0.59141,1.149122 -0.56641,1.794922 -0.023,0.505099 0.0798,1.006991 0.29883,1.46289 0.188,0.3564 0.45811,0.664938 0.78711,0.898438 0.311,0.2052 0.65844,0.348228 1.02344,0.423828 0.336,0.0779 0.67944,0.121053 1.02344,0.126953 0.694,0.0142 1.38067,-0.126457 2.01367,-0.410156 0.539,-0.2618 1.03384,-0.607338 1.46484,-1.023438 0.031,0.488 0.18891,0.834463 0.50391,1.039063 0.335,0.2068 0.72319,0.310528 1.11719,0.298828 0.26,-0.0031 0.51753,-0.03415 0.76953,-0.09375 v -0.472656 l -0.48633,-0.07813 c -0.145,-0.0322 -0.27528,-0.116329 -0.36328,-0.236328 -0.121,-0.1502 -0.20333,-0.329132 -0.23633,-0.519532 -0.071,-0.309699 -0.10175,-0.627813 -0.0937,-0.945312 v -4.28125 c 0.013,-0.5301 -0.0449,-1.05962 -0.17188,-1.574219 -0.091,-0.4227 -0.29298,-0.813213 -0.58398,-1.132813 -0.304,-0.326299 -0.69019,-0.566159 -1.11719,-0.693359 -0.49525,-0.151375 -1.00813,-0.229876 -1.52539,-0.236328 z m 18.24219,0.002 c -0.565,-0.003 -1.12434,0.09813 -1.65234,0.298828 -0.535,0.2033 -1.0236,0.51311 -1.4336,0.91211 -0.447,0.456399 -0.78986,1.004069 -1.00586,1.605468 -0.268,0.7413 -0.3969,1.526354 -0.3789,2.314454 -0.02,0.821699 0.0967,1.640728 0.3457,2.423828 0.19,0.629799 0.52456,1.205994 0.97656,1.683593 0.417,0.4283 0.9301,0.752713 1.4961,0.945313 0.608,0.2063 1.24667,0.307128 1.88867,0.298828 0.472,0.0036 0.94434,-0.05523 1.40234,-0.173828 0.376,-0.0943 0.74094,-0.230703 1.08594,-0.408203 0.254,-0.1331 0.48641,-0.303007 0.6914,-0.503907 0.139,-0.114699 0.22896,-0.278431 0.25196,-0.457031 -0.02,-0.1125 -0.064,-0.219253 -0.12696,-0.314453 -0.094,-0.126 -0.2037,-0.268281 -0.3457,-0.425781 l -0.33008,0.363281 c -0.176,0.1597 -0.37203,0.296103 -0.58203,0.408203 -0.267,0.1518 -0.55261,0.269557 -0.84961,0.347657 -0.374,0.101399 -0.76239,0.148124 -1.15039,0.140624 -0.525,0.0137 -1.04439,-0.08813 -1.52539,-0.298828 -0.415,-0.179899 -0.77864,-0.461259 -1.05664,-0.818359 -0.29,-0.3805 -0.50291,-0.813791 -0.6289,-1.275391 -0.147,-0.538999 -0.22633,-1.093744 -0.23633,-1.652343 h 7.02148 c 0.043,-0.3657 0.0635,-0.733263 0.0625,-1.101563 0.004,-0.541899 -0.0651,-1.081869 -0.20508,-1.605469 -0.143,-0.500399 -0.3774,-0.969566 -0.6914,-1.384765 -0.327,-0.4066 -0.74289,-0.735438 -1.21289,-0.960938 -0.569,-0.252899 -1.18855,-0.375728 -1.81055,-0.361328 z m 16.43359,0 c -0.57,-0.0042 -1.13597,0.09693 -1.66797,0.298828 -0.535,0.2033 -1.02359,0.51311 -1.43359,0.91211 -0.447,0.456399 -0.78986,1.004069 -1.00586,1.605468 -0.269,0.7413 -0.3979,1.526354 -0.3789,2.314454 -0.013,0.821199 0.1037,1.638928 0.3457,2.423828 0.196,0.627099 0.52956,1.201994 0.97656,1.683593 0.423,0.4217 0.93309,0.745113 1.49609,0.945313 0.613,0.2075 1.2573,0.308328 1.9043,0.298828 0.473,0.0015 0.94239,-0.05723 1.40039,-0.173828 0.371,-0.0969 0.73127,-0.233103 1.07227,-0.408203 0.256,-0.1372 0.49303,-0.306707 0.70703,-0.503907 0.13,-0.119899 0.21333,-0.282031 0.23633,-0.457031 -0.02,-0.1125 -0.064,-0.219253 -0.12696,-0.314453 -0.104,-0.1507 -0.2197,-0.293481 -0.3457,-0.425781 -0.096,0.1333 -0.20608,0.256081 -0.33008,0.363281 -0.174,0.1633 -0.37003,0.300003 -0.58203,0.408203 -0.262,0.1518 -0.54198,0.269657 -0.83398,0.347657 -0.38,0.100199 -0.77302,0.146924 -1.16602,0.140624 -0.52,0.0156 -1.03576,-0.08643 -1.50976,-0.298828 -0.419,-0.179999 -0.78827,-0.461059 -1.07227,-0.818359 -0.284,-0.3843 -0.49691,-0.816391 -0.62891,-1.275391 -0.147,-0.538999 -0.22632,-1.093744 -0.23632,-1.652343 h 7.02148 c 0.043,-0.3657 0.0635,-0.733263 0.0625,-1.101563 0.004,-0.541899 -0.0651,-1.081869 -0.20508,-1.605469 -0.137,-0.502899 -0.3714,-0.973266 -0.6914,-1.384765 -0.324,-0.4102 -0.7399,-0.739738 -1.2129,-0.960938 -0.56499,-0.251599 -1.17692,-0.374428 -1.79492,-0.361328 z m -27.98632,0.171875 c -0.362,0 -0.62949,0.0943 -0.77149,0.283203 -0.151,0.2335 -0.22408,0.50951 -0.20508,0.78711 h 5.83985 l -5.93555,7.980468 v 0.945313 h 7.71484 c 0.015,-0.2871 -0.0571,-0.57186 -0.20507,-0.818359 -0.137,-0.1889 -0.38886,-0.283204 -0.75586,-0.283204 h -5.28907 l 5.98243,-7.949218 v -0.394532 c 0,-0.377799 -0.18866,-0.550781 -0.59766,-0.550781 z m 11.45898,0.849609 c 0.468,-0.015 0.93152,0.082 1.35352,0.283204 0.34499,0.171199 0.64223,0.425834 0.86523,0.740234 0.222,0.3323 0.37341,0.707463 0.44141,1.101562 0.097,0.4394 0.14262,0.887992 0.14062,1.337891 h -5.85547 c 0.032,-1.101899 0.33181,-1.966254 0.88281,-2.564453 0.535,-0.598099 1.25888,-0.898438 2.17188,-0.898438 z m 16.41797,0 c 0.467,-0.015 0.93151,0.082 1.35351,0.283204 0.348,0.167099 0.64624,0.422534 0.86524,0.740234 0.222,0.3347 0.37703,0.708463 0.45703,1.101562 0.083,0.4412 0.124,0.888992 0.125,1.337891 h -5.83984 c 0.031,-1.101899 0.31618,-1.966254 0.86718,-2.564453 0.556,-0.598099 1.27988,-0.898438 2.17188,-0.898438 z m -68.080081,0.488282 c 0.677,0 1.14802,0.221485 1.41602,0.646484 0.268,0.425 0.39453,0.99107 0.39453,1.667969 h -3.7461 c 0,-0.724099 0.17253,-1.289919 0.51953,-1.699219 0.174,-0.2031 0.39172,-0.364403 0.63672,-0.470703 0.246,-0.1064 0.5123,-0.156331 0.7793,-0.144531 z m 10.4668,0.111328 c 0.351,-0.0118 0.70076,0.06983 1.00976,0.236328 0.274,0.1512 0.50216,0.373532 0.66016,0.644531 0.179,0.3005 0.30133,0.631863 0.36133,0.976563 0.07,0.405499 0.10833,0.814863 0.11132,1.226562 0,1.070299 -0.15865,1.890257 -0.47265,2.472656 -0.315,0.5824 -0.8346,0.865235 -1.55859,0.865235 -0.388,0.0176 -0.77419,-0.06955 -1.11719,-0.251953 -0.216,-0.1109 -0.41666,-0.249257 -0.59766,-0.410156 v -4.642579 c 0,-0.145599 0.02985,-0.289075 0.08985,-0.421875 0.05899,-0.132899 0.14685,-0.252509 0.25585,-0.349609 0.236,-0.2361 0.65982,-0.345703 1.25782,-0.345703 z m 24.666011,3.210937 h 0.56836 v 2.816407 c -0.032,0.188099 -0.12558,0.360281 -0.26758,0.488281 -0.201,0.2227 -0.43536,0.413506 -0.69336,0.566406 -0.325,0.2006 -0.67406,0.359756 -1.03906,0.472656 -0.408,0.1275 -0.83276,0.191753 -1.25976,0.189453 -0.349,0.0084 -0.69644,-0.05103 -1.02344,-0.173828 -0.241,-0.0964 -0.45591,-0.245953 -0.62891,-0.439453 -0.159,-0.1747 -0.27108,-0.386734 -0.33008,-0.615234 -0.063,-0.2362 -0.0948,-0.48011 -0.0937,-0.724609 -0.022,-0.4726 0.12783,-0.935088 0.42383,-1.304688 0.31,-0.3519 0.69782,-0.626735 1.13281,-0.802734 0.494,-0.1975 1.01297,-0.325807 1.54297,-0.378907 0.554,-0.0628 1.11097,-0.09365 1.66797,-0.09375 z"
     style="fill:#000000;fill-opacity:1" />
</svg>
